<svg width="3898" height="3897" xmlns="http://www.w3.org/2000/svg" xmlns:xlink="http://www.w3.org/1999/xlink" xml:space="preserve" overflow="hidden"><defs><clipPath id="clip0"><rect x="0" y="0" width="3898" height="3897"/></clipPath></defs><g clip-path="url(#clip0)"><path d="M0 1948.5C-2.48134e-13 872.373 872.597-2.4807e-13 1949-4.9614e-13 3025.4-9.9228e-13 3898 872.373 3898 1948.5 3898 3024.63 3025.4 3897 1949 3897 872.597 3897-1.24067e-12 3024.63 0 1948.5Z" fill="#2DA53D" fill-rule="evenodd"/><path d="M130 1948.5C130 944.17 944.394 130 1949 130 2953.61 130 3768 944.17 3768 1948.5 3768 2952.83 2953.61 3767 1949 3767 944.394 3767 130 2952.83 130 1948.5Z" fill="#34C848" fill-rule="evenodd"/><path d="M974 1434.15 2463.62 2923 974 2923ZM1433.38 975 2923 975 2923 2463.85Z" fill="#0B650E" fill-rule="evenodd"/></g></svg>