<svg width="3898" height="3898" xmlns="http://www.w3.org/2000/svg" xmlns:xlink="http://www.w3.org/1999/xlink" xml:space="preserve" overflow="hidden"><g><path d="M151.692 651.26C72.9999 752.164 72.9999 1052.1 72.9999 1651.97L72.9999 1947.39C72.9999 3005.08 956.588 3518.37 1510.97 3736.32 1661.35 3795.43 1736.53 3825 1949 3825L1949 72.9999C1779.87 72.9999 1616.53 123.322 1289.84 223.965L1170.44 260.748C543.734 453.82 230.382 550.356 151.692 651.26Z" fill="#AEBED2" fill-rule="evenodd"/><path d="M1949 0C2124.71 0 2294.41 52.2801 2633.81 156.84L2757.86 195.054C3408.95 395.639 3734.5 495.931 3816.25 600.761 3898 705.592 3898 1017.2 3898 1640.41L3898 1947.32C3898 3046.17 2980.02 3579.44 2404.07 3805.87 2247.85 3867.28 2169.74 3898 1949 3898 1728.27 3898 1650.15 3867.28 1493.92 3805.87 917.97 3579.44 0 3046.17 0 1947.32L0 1640.41C0 1017.2 0 705.592 81.7542 600.761 163.506 495.931 489.052 395.639 1140.15 195.054L1264.19 156.84C1603.59 52.2801 1773.29 0 1949 0Z" fill="#959CB3" fill-rule="evenodd"/><path d="M1965 72.9999C2134.13 72.9999 2297.47 123.322 2624.16 223.965L2743.56 260.748C3370.27 453.82 3683.62 550.356 3762.31 651.26 3841 752.164 3841 1052.1 3841 1651.97L3841 1947.39C3841 3005.08 2957.4 3518.37 2403.03 3736.32 2252.65 3795.43 2177.47 3825 1965 3825 1752.53 3825 1677.35 3795.43 1526.97 3736.32 972.588 3518.37 89 3005.08 89 1947.39L89 1651.97C89 1052.1 89 752.164 167.692 651.26 246.382 550.356 559.734 453.82 1186.44 260.748L1305.84 223.965C1632.53 123.322 1795.87 72.9999 1965 72.9999Z" fill="#F2F2F2" fill-rule="evenodd" fill-opacity="0.258824"/><path d="M1542.52 2000.51 1466.29 2175.39 1461.68 2173.91C1442.28 2169.33 1420.78 2169.01 1397.22 2173.32 1218.22 2206.03 972.403 2500.93 793.784 2890.73L788.202 2903.44 788.495 2903.56 781.36 2919.93 781.36 2919.93 776.283 2931.58C762.78 2962.56 718.588 2973.18 677.576 2955.3 636.565 2937.42 614.264 2897.82 627.767 2866.84L639.979 2838.83 639.979 2838.83 647.411 2821.81C870.11 2338.56 1205.75 1989.86 1460.04 1987.5 1480.77 1987.31 1500.44 1989.39 1519.03 1993.62Z" fill="#82889D" fill-rule="evenodd"/><path d="M492.375 0 492.375 190.766 487.561 191.256C467.941 194.813 448.112 203.11 428.228 216.475 277.22 317.985 169.715 686.546 161.733 1115.25L161.693 1129.12 162.013 1129.12 162.013 1146.98 162.013 1146.98 162.013 1159.68C162.013 1193.48 125.745 1220.87 81.0064 1220.87 36.2682 1220.87 0 1193.48 0 1159.68L0.000350191 1129.12 0 1129.12 0.014708 1110.56C11.0615 578.577 179.406 124.807 411.572 21.0328 430.499 12.5726 449.359 6.6212 468.089 3.0705Z" fill="#82889D" fill-rule="evenodd" transform="matrix(-0.916695 -0.399588 -0.399588 0.916695 2428.4 2386.67)"/><path d="M809.1 1612.28 1784.89 2037.63 1584.84 2496.55 1353.92 2392.52C1152.16 2309.87 1329.99 2229.31 1238.07 2001.52 1155.75 1831.97 1034.39 1772.01 809.1 1612.28Z" fill="#D7DEED" fill-rule="evenodd"/><path d="M1533.83 2383.9C1540.6 2368.37 1558.68 2361.26 1574.22 2368.04L1686.73 2417.08C1702.27 2423.85 1709.37 2441.94 1702.6 2457.47L1572.46 2756.03C1565.68 2771.57 1547.6 2778.67 1532.07 2771.9L1419.55 2722.86C1404.02 2716.08 1396.91 2698 1403.68 2682.47Z" fill="#5B5D6E" fill-rule="evenodd"/><path d="M1732.87 2680.77C1758.23 2691.83 1769.83 2721.35 1758.78 2746.7L1678.72 2930.37C1667.66 2955.73 1638.14 2967.32 1612.79 2956.27L1224.96 2787.21C1199.6 2776.16 1188 2746.64 1199.06 2721.28L1279.11 2537.62C1290.17 2512.26 1319.69 2500.67 1345.05 2511.72Z" fill="#959CB3" fill-rule="evenodd"/><path d="M1452.23 2722.36C1479.54 2659.71 1553.65 2631.57 1617.75 2659.51 1681.86 2687.45 1711.68 2760.9 1684.37 2823.55 1657.06 2886.21 1582.95 2914.34 1518.85 2886.4 1454.75 2858.46 1424.92 2785.02 1452.23 2722.36Z" fill="#464655" fill-rule="evenodd"/><path d="M1527.02 2754.96C1536.73 2732.68 1563.09 2722.67 1585.89 2732.61 1608.69 2742.55 1619.3 2768.67 1609.58 2790.95 1599.87 2813.23 1573.51 2823.24 1550.71 2813.3 1527.92 2803.37 1517.31 2777.25 1527.02 2754.96Z" fill="#E4EAF6" fill-rule="evenodd"/><path d="M1423.23 2637.63C1413.98 2658.85 1389.27 2668.56 1368.05 2659.31L1329.09 2642.32C1307.87 2633.07 1298.16 2608.37 1307.41 2587.14L1313.71 2572.71C1322.96 2551.48 1347.66 2541.78 1368.88 2551.03L1407.85 2568.01C1429.07 2577.27 1438.77 2601.97 1429.52 2623.19Z" fill="#E4EAF6" fill-rule="evenodd"/><path d="M750.483 1516.4C764.712 1483.75 802.709 1468.82 835.352 1483.05L2837.48 2355.78C2870.12 2370.01 2885.05 2408.01 2870.82 2440.65L2870.82 2440.65C2856.59 2473.29 2818.59 2488.22 2785.95 2473.99L783.824 1601.26C751.181 1587.04 736.254 1549.04 750.483 1516.4Z" fill="#E4EAF6" fill-rule="evenodd"/><path d="M1933.02 1692.22 1933.81 1692.61 1929.18 1690.77 1933.02 1692.22Z" fill="#D7DEED" fill-rule="evenodd"/><path d="M1115.03 1286.93C1298.13 1366.75 1435.02 1457.91 1420.8 1490.55 1406.57 1523.2 1246.6 1484.96 1063.51 1405.15 880.409 1325.33 743.515 1234.17 757.744 1201.53 771.973 1168.89 931.937 1207.12 1115.03 1286.93Z" fill="#C7CFE2" fill-rule="evenodd"/><path d="M551.233 1041.18C734.33 1120.99 871.224 1212.15 856.995 1244.79 842.766 1277.44 682.802 1239.2 499.705 1159.39 316.609 1079.57 179.715 988.411 193.944 955.769 208.173 923.126 368.137 961.364 551.233 1041.18Z" fill="#C7CFE2" fill-rule="evenodd"/><path d="M54.2306 0 282.857 0C312.808-1.82353e-14 337.088 24.237 337.088 54.1349 337.088 84.0328 312.808 108.27 282.857 108.27L54.2306 108.27C24.2799 108.27 0 84.0328 0 54.1349 0 24.237 24.2799 9.11767e-15 54.2306 0Z" fill="#384980" fill-rule="evenodd" transform="matrix(-0.399588 0.916695 0.916695 0.399588 808.445 1085.22)"/><path d="M710.733 1271.31 837.87 1326.73C882.285 1346.09 904.045 1394.47 886.472 1434.79L829.719 1564.98 829.719 1564.98 818.837 1589.95C789.895 1656.34 701.966 1682.07 622.443 1647.4 542.92 1612.74 501.915 1530.81 530.858 1464.42L583.262 1344.19 583.263 1344.19 598.493 1309.26C616.066 1268.94 666.317 1251.95 710.733 1271.31Z" fill="#5B5D6E" fill-rule="evenodd"/><path d="M710.358 1272.17 837.495 1327.59C881.91 1346.95 903.67 1395.33 886.097 1435.64L868.603 1475.78 580.624 1350.25 582.888 1345.05 582.888 1345.05 598.118 1310.11C615.691 1269.8 665.943 1252.81 710.358 1272.17Z" fill="#82889D" fill-rule="evenodd"/><path d="M3355.09 2263.38C3538.19 2343.19 3675.08 2434.35 3660.86 2467 3646.63 2499.64 3486.66 2461.4 3303.57 2381.59 3120.47 2301.78 2983.58 2210.61 2997.8 2177.97 3012.03 2145.33 3172 2183.57 3355.09 2263.38Z" fill="#C7CFE2" fill-rule="evenodd"/><path d="M2791.29 2017.62C2974.39 2097.43 3111.28 2188.59 3097.06 2221.23 3082.83 2253.88 2922.86 2215.64 2739.77 2135.83 2556.67 2056.02 2419.78 1964.85 2434 1932.21 2448.23 1899.57 2608.2 1937.81 2791.29 2017.62Z" fill="#C7CFE2" fill-rule="evenodd"/><path d="M54.2306 0 282.857 0C312.808-1.82353e-14 337.088 24.237 337.088 54.1349 337.088 84.0328 312.808 108.27 282.857 108.27L54.2306 108.27C24.2799 108.27 0 84.0328 0 54.1349 0 24.237 24.2799 9.11767e-15 54.2306 0Z" fill="#384980" fill-rule="evenodd" transform="matrix(-0.399588 0.916695 0.916695 0.399588 3048.51 2061.66)"/><path d="M2950.79 2247.76 3077.93 2303.18C3122.35 2322.54 3144.11 2370.91 3126.53 2411.23L3069.78 2541.42 3069.78 2541.42 3058.9 2566.39C3029.96 2632.79 2942.03 2658.51 2862.5 2623.84 2782.98 2589.18 2741.98 2507.25 2770.92 2440.86L2823.32 2320.64 2823.32 2320.64 2838.55 2285.7C2856.13 2245.38 2906.38 2228.4 2950.79 2247.76Z" fill="#5B5D6E" fill-rule="evenodd"/><path d="M2951.34 2246.51 3078.48 2301.93C3122.89 2321.29 3144.65 2369.66 3127.08 2409.98L3109.58 2450.11 2821.6 2324.58 2823.87 2319.39 2823.87 2319.39 2839.1 2284.45C2856.67 2244.13 2906.92 2227.15 2951.34 2246.51Z" fill="#82889D" fill-rule="evenodd"/><path d="M1910.85 1739.05C2154.17 1845.11 2341 2002.16 2425.56 2154L2439.44 2182.27 1226.36 1653.49 1256.51 1644.42C1425.31 1603.01 1667.53 1632.99 1910.85 1739.05Z" fill="#D7DEED" fill-rule="evenodd"/><path d="M1904.97 1736.71 1849.31 1715.7C1709.96 1671 1568.64 1679.86 1459.89 1733.07L1437.48 1745.52 1226.36 1653.49 1256.51 1644.41C1404.21 1608.18 1608.12 1626.61 1819.8 1702.83L1904.97 1736.71Z" fill="#C7CFE2" fill-rule="evenodd"/><path d="M808.59 1612.06 972.262 1683.4 1054.28 1719.16 1217.96 1790.5 1245.6 1810.17C1421.78 1933.93 1524.33 1999.82 1594.98 2154.34 1662.1 2332.55 1576.31 2426.47 1615.2 2497.4L1626.37 2512.87 1517.08 2463.64C1491.86 2453.31 1472.57 2443.01 1457.95 2432.46L1453.16 2428.32 1462.69 2441.53 1353.41 2392.3C1151.65 2309.65 1329.48 2229.09 1237.56 2001.29 1155.24 1831.75 1033.88 1771.79 808.59 1612.06Z" fill="#C7CFE2" fill-rule="evenodd"/><path d="M0 0 1064.46 0 1064.46 500.623 811.208 497.54C593.228 502.395 724.052 357.488 548.767 185.397 405.554 62.8718 270.346 56.4041 0 0Z" fill="#D7DEED" fill-rule="evenodd" transform="matrix(-0.916695 -0.399588 -0.399588 0.916695 2761.18 2463.2)"/><path d="M1630.22 2392.45 2002.48 2554.72 1989.05 2571.51C1951.14 2617.3 1917.17 2640.69 1818.23 2594.92L1584.84 2496.55 1584.84 2496.55 1353.92 2392.52C1253.04 2351.2 1247.06 2310.4 1254.81 2251.45L1257.96 2230.18 1630.22 2392.45Z" fill="#FF6464" fill-rule="evenodd"/><path d="M2785.67 1220.94 3281.57 902.236C3292.07 895.488 3303.75 894.949 3311.73 900.845L3553.39 1079.25C3570.45 1091.85 3561.83 1124.46 3538.49 1135.59L3297.19 1250.76C3273.85 1261.9 3265.22 1294.51 3282.28 1307.1L3343.53 1352.33C3361.55 1365.63 3350.77 1400.56 3325.78 1409.88L2487.39 1722.38C2454.32 1734.71 2442.38 1690.35 2472.71 1667.8L2848.8 1388.18C2867.77 1374.08 2872.18 1346.75 2857.27 1335.74L2774.93 1274.96C2759.26 1263.38 2765.07 1234.18 2785.67 1220.94Z" fill="#EAE509" fill-rule="evenodd"/><path d="M2049.02 1023.78 2234.15 464.119C2238.07 452.269 2246.81 444.507 2256.73 444.068L2556.82 430.804C2578 429.867 2591.8 460.646 2580.66 483.982L2465.48 725.279C2454.34 748.616 2468.14 779.394 2489.32 778.458L2565.39 775.096C2587.76 774.107 2601.34 808.047 2587.77 831.005L2132.46 1601.23C2114.5 1631.62 2077.32 1604.63 2086.71 1568.02L2203.28 1114.11C2209.16 1091.21 2195.41 1067.19 2176.88 1068.01L2074.64 1072.52C2055.18 1073.38 2041.33 1047.03 2049.02 1023.78Z" fill="#EAE509" fill-rule="evenodd"/></g></svg>