<svg width="3195" height="1527" xmlns="http://www.w3.org/2000/svg" xmlns:xlink="http://www.w3.org/1999/xlink" xml:space="preserve" overflow="hidden"><defs><clipPath id="clip0"><rect x="366" y="1185" width="3195" height="1527"/></clipPath></defs><g clip-path="url(#clip0)" transform="translate(-366 -1185)"><path d="M1763 1657 1763 1821.85 1758.93 1822.27C1742.36 1825.35 1725.6 1832.51 1708.8 1844.06 1581.22 1931.78 1490.39 2250.27 1483.65 2620.73L1483.61 2632.72 1483.88 2632.72 1483.88 2648.15 1483.88 2648.15 1483.88 2659.13C1483.88 2688.33 1453.24 2712 1415.44 2712 1377.64 2712 1347 2688.33 1347 2659.13L1347 2632.72 1347 2632.72 1347.01 2616.67C1356.35 2156.97 1498.58 1764.85 1694.73 1675.18 1710.72 1667.86 1726.66 1662.72 1742.48 1659.65Z" fill="#82889D" fill-rule="evenodd"/><path d="M416 0 416 164.848 411.933 165.272C395.356 168.345 378.603 175.515 361.804 187.065 234.219 274.783 143.389 593.271 136.646 963.726L136.612 975.717 136.882 975.717 136.882 991.148 136.882 991.148 136.882 1002.13C136.882 1031.33 106.24 1055 68.4411 1055 30.6425 1055 0 1031.33 0 1002.13L0.000295871 975.717 0 975.717 0.0124266 959.674C9.34567 499.971 151.578 107.85 347.731 18.1752 363.723 10.8644 379.656 5.72163 395.482 2.65333Z" fill="#82889D" fill-rule="evenodd" transform="matrix(-1 0 0 1 2579 1657)"/><path d="M1064 1603 1963 1603 1963 2035 1749.11 2032.34C1565.02 2036.53 1675.51 1911.49 1527.47 1762.98 1406.51 1657.25 1292.32 1651.67 1064 1603Z" fill="#D7DEED" fill-rule="evenodd"/><path d="M1886 1962.83C1886 1948.57 1897.57 1937 1911.83 1937L2015.17 1937C2029.43 1937 2041 1948.57 2041 1962.83L2041 2246.17C2041 2260.43 2029.43 2272 2015.17 2272L1911.83 2272C1897.57 2272 1886 2260.43 1886 2246.17Z" fill="#5B5D6E" fill-rule="evenodd"/><path d="M2138.67 2130C2162.6 2130 2182 2149.4 2182 2173.33L2182 2346.67C2182 2370.6 2162.6 2390 2138.67 2390L1783.33 2390C1759.4 2390 1740 2370.6 1740 2346.67L1740 2173.33C1740 2149.4 1759.4 2130 1783.33 2130Z" fill="#959CB3" fill-rule="evenodd"/><path d="M1937 2260C1937 2200.91 1984.91 2153 2044 2153 2103.09 2153 2151 2200.91 2151 2260 2151 2319.09 2103.09 2367 2044 2367 1984.91 2367 1937 2319.09 1937 2260Z" fill="#464655" fill-rule="evenodd"/><path d="M2006 2260C2006 2239.01 2023.01 2222 2044 2222 2064.99 2222 2082 2239.01 2082 2260 2082 2280.99 2064.99 2298 2044 2298 2023.01 2298 2006 2280.99 2006 2260Z" fill="#E4EAF6" fill-rule="evenodd"/><path d="M1886 2202.8C1886 2222.79 1869.79 2239 1849.8 2239L1815.2 2239C1795.21 2239 1779 2222.79 1779 2202.8L1779 2189.2C1779 2169.21 1795.21 2153 1815.2 2153L1849.8 2153C1869.79 2153 1886 2169.21 1886 2189.2Z" fill="#E4EAF6" fill-rule="evenodd"/><path d="M987 1547C987 1516.07 1012.07 1491 1043 1491L2884 1491C2914.93 1491 2940 1516.07 2940 1547L2940 1547C2940 1577.93 2914.93 1603 2884 1603L1043 1603C1012.07 1603 987 1577.93 987 1547Z" fill="#E4EAF6" fill-rule="evenodd"/><path d="M1961.3 1278 1962 1278.21 1958 1279 1961.3 1278Z" fill="#D7DEED" fill-rule="evenodd"/><path d="M1191.5 1239C1360.22 1239 1497 1264.07 1497 1295 1497 1325.93 1360.22 1351 1191.5 1351 1022.78 1351 886 1325.93 886 1295 886 1264.07 1022.78 1239 1191.5 1239Z" fill="#C7CFE2" fill-rule="evenodd"/><path d="M671.5 1239C840.223 1239 977 1264.07 977 1295 977 1325.93 840.223 1351 671.5 1351 502.777 1351 366 1325.93 366 1295 366 1264.07 502.777 1239 671.5 1239Z" fill="#C7CFE2" fill-rule="evenodd"/><path d="M46.9769 0 245.023 0C270.968-1.53267e-14 292 20.3711 292 45.5 292 70.629 270.968 91.0001 245.023 91.0001L46.9769 91.0001C21.0323 91.0001 0 70.629 0 45.5 0 20.3711 21.0323 7.66334e-15 46.9769 0Z" fill="#384980" fill-rule="evenodd" transform="matrix(6.12323e-17 1 1 -6.12323e-17 886 1185)"/><path d="M873.004 1367 989.996 1367C1030.87 1367 1064 1397.77 1064 1435.73L1064 1558.31 1064 1558.31 1064 1581.81C1064 1644.32 1004.68 1695 931.5 1695 858.322 1695 799 1644.32 799 1581.81L799 1468.62 799 1468.62 799 1435.73C799 1397.77 832.133 1367 873.004 1367Z" fill="#5B5D6E" fill-rule="evenodd"/><path d="M873.004 1367 989.996 1367C1030.87 1367 1064 1397.91 1064 1436.04L1064 1474 799 1474 799 1469.09 799 1469.09 799 1436.04C799 1397.91 832.133 1367 873.004 1367Z" fill="#82889D" fill-rule="evenodd"/><path d="M3255.5 1239C3424.22 1239 3561 1264.07 3561 1295 3561 1325.93 3424.22 1351 3255.5 1351 3086.78 1351 2950 1325.93 2950 1295 2950 1264.07 3086.78 1239 3255.5 1239Z" fill="#C7CFE2" fill-rule="evenodd"/><path d="M2735.5 1239C2904.22 1239 3041 1264.07 3041 1295 3041 1325.93 2904.22 1351 2735.5 1351 2566.78 1351 2430 1325.93 2430 1295 2430 1264.07 2566.78 1239 2735.5 1239Z" fill="#C7CFE2" fill-rule="evenodd"/><path d="M46.9769 0 245.023 0C270.968-1.53267e-14 292 20.3711 292 45.5 292 70.629 270.968 91.0001 245.023 91.0001L46.9769 91.0001C21.0323 91.0001 0 70.629 0 45.5 0 20.3711 21.0323 7.66334e-15 46.9769 0Z" fill="#384980" fill-rule="evenodd" transform="matrix(6.12323e-17 1 1 -6.12323e-17 2950 1185)"/><path d="M2937 1367 3054 1367C3094.87 1367 3128 1397.77 3128 1435.73L3128 1558.31 3128 1558.31 3128 1581.81C3128 1644.32 3068.68 1695 2995.5 1695 2922.32 1695 2863 1644.32 2863 1581.81L2863 1468.62 2863 1468.62 2863 1435.73C2863 1397.77 2896.13 1367 2937 1367Z" fill="#5B5D6E" fill-rule="evenodd"/><path d="M2937 1365 3054 1365C3094.87 1365 3128 1395.91 3128 1434.04L3128 1472 2863 1472 2863 1467.09 2863 1467.09 2863 1434.04C2863 1395.91 2896.13 1365 2937 1365Z" fill="#82889D" fill-rule="evenodd"/><path d="M1960 1323C2184.25 1323 2381.96 1382.68 2498.71 1473.46L2519 1491 1401 1491 1421.29 1473.46C1538.04 1382.68 1735.75 1323 1960 1323Z" fill="#D7DEED" fill-rule="evenodd"/><path d="M1955 1323 1904.77 1325.57C1781.68 1338.25 1675.16 1393.93 1608.86 1473.44L1595.69 1491 1401 1491 1421.3 1473.44C1523.52 1393.93 1687.77 1338.25 1877.55 1325.57L1955 1323Z" fill="#C7CFE2" fill-rule="evenodd"/><path d="M1064 1603 1214.77 1603 1290.33 1603 1441.1 1603 1469.13 1609.03C1647.28 1646.22 1748.89 1662.99 1855.73 1760.96 1967.81 1878.9 1933.09 1982.86 1987.13 2025.6L2001 2034 1899.79 2032.74C1876.78 2033.26 1858.38 2031.77 1843.49 2028.46L1838.4 2026.84 1850.23 2034 1749.02 2032.74C1564.95 2036.93 1675.42 1911.77 1527.4 1763.13 1406.47 1657.3 1292.29 1651.72 1064 1603Z" fill="#C7CFE2" fill-rule="evenodd"/><path d="M0 0 899 0 899 432 685.114 429.34C501.016 433.529 611.505 308.486 463.467 159.984 342.514 54.2537 228.323 48.6725 0 0Z" fill="#D7DEED" fill-rule="evenodd" transform="matrix(-1 0 0 1 2863 1603)"/><path d="M1963 1937 2306 1937 2301.27 1954.91C2287.37 2004.22 2268.97 2034.43 2176.91 2032.34L1963 2035 1963 2035 1749.09 2032.34C1657.03 2034.43 1638.63 2004.22 1624.73 1954.91L1620 1937 1963 1937Z" fill="#FF6464" fill-rule="evenodd"/></g></svg>