<svg width="3897" height="3898" xmlns="http://www.w3.org/2000/svg" xmlns:xlink="http://www.w3.org/1999/xlink" xml:space="preserve" overflow="hidden"><g transform="translate(-13 0)"><path d="M1572.88 2157.28 1491.18 2344.7 1486.24 2343.12C1465.44 2338.21 1442.41 2337.87 1417.15 2342.49 1225.32 2377.54 961.857 2693.6 770.421 3111.37L764.438 3124.99 764.753 3125.12 757.105 3142.67 757.105 3142.67 751.664 3155.15C737.192 3188.35 689.829 3199.73 645.875 3180.57 601.921 3161.41 578.02 3118.97 592.491 3085.77L605.58 3055.74 605.58 3055.74 613.545 3037.51C852.223 2519.58 1211.95 2145.86 1484.49 2143.34 1506.7 2143.13 1527.78 2145.36 1547.7 2149.89Z" fill="#82889D" fill-rule="evenodd"/><path d="M527.704 0 527.704 204.454 522.545 204.979C501.517 208.791 480.265 217.683 458.955 232.008 297.111 340.801 181.892 735.808 173.338 1195.27L173.295 1210.14 173.638 1210.14 173.638 1229.28 173.638 1229.28 173.638 1242.9C173.638 1279.11 134.768 1308.47 86.8188 1308.47 38.8705 1308.47 0 1279.11 0 1242.9L0.000375318 1210.14 0 1210.14 0.0157633 1190.24C11.8552 620.092 192.279 133.762 441.103 22.542 461.389 13.4747 481.601 7.09629 501.676 3.29081Z" fill="#82889D" fill-rule="evenodd" transform="matrix(-0.916695 -0.399588 -0.399588 0.916695 2522.33 2571.14)"/><path d="M786.836 1741.19 1832.64 2197.05 1618.24 2688.9 1370.75 2577.42C1154.51 2488.83 1345.1 2402.49 1246.59 2158.35 1158.36 1976.64 1028.29 1912.38 786.836 1741.19Z" fill="#D7DEED" fill-rule="evenodd"/><path d="M1563.57 2568.18C1570.82 2551.53 1590.2 2543.91 1606.85 2551.17L1727.44 2603.74C1744.09 2610.99 1751.7 2630.37 1744.45 2647.02L1604.96 2967.01C1597.71 2983.66 1578.33 2991.27 1561.68 2984.01L1441.09 2931.45C1424.44 2924.19 1416.83 2904.81 1424.08 2888.16Z" fill="#5B5D6E" fill-rule="evenodd"/><path d="M1776.89 2886.35C1804.07 2898.2 1816.5 2929.83 1804.65 2957.01L1718.85 3153.85C1707 3181.03 1675.37 3193.46 1648.19 3181.61L1232.53 3000.43C1205.35 2988.58 1192.92 2956.94 1204.77 2929.76L1290.58 2732.92C1302.42 2705.75 1334.06 2693.32 1361.24 2705.16Z" fill="#959CB3" fill-rule="evenodd"/><path d="M1476.11 2930.92C1505.39 2863.77 1584.81 2833.61 1653.51 2863.56 1722.22 2893.51 1754.18 2972.22 1724.91 3039.37 1695.64 3106.52 1616.22 3136.68 1547.51 3106.73 1478.81 3076.78 1446.84 2998.07 1476.11 2930.92Z" fill="#464655" fill-rule="evenodd"/><path d="M1556.27 2965.86C1566.68 2941.98 1594.93 2931.25 1619.36 2941.9 1643.8 2952.55 1655.17 2980.55 1644.76 3004.43 1634.35 3028.31 1606.1 3039.04 1581.66 3028.39 1557.23 3017.74 1545.86 2989.74 1556.27 2965.86Z" fill="#E4EAF6" fill-rule="evenodd"/><path d="M1445.03 2840.11C1435.12 2862.85 1408.64 2873.26 1385.89 2863.34L1344.13 2845.14C1321.39 2835.22 1310.99 2808.75 1320.9 2786L1327.65 2770.53C1337.56 2747.78 1364.04 2737.38 1386.78 2747.29L1428.54 2765.5C1451.29 2775.41 1461.69 2801.89 1451.78 2824.63Z" fill="#E4EAF6" fill-rule="evenodd"/><path d="M724.013 1638.42C739.263 1603.44 779.987 1587.44 814.971 1602.69L2960.75 2538.04C2995.74 2553.29 3011.74 2594.01 2996.49 2628.99L2996.49 2628.99C2981.24 2663.98 2940.51 2679.98 2905.53 2664.73L759.746 1729.38C724.761 1714.13 708.763 1673.41 724.013 1638.42Z" fill="#E4EAF6" fill-rule="evenodd"/><path d="M1991.4 1826.87 1992.25 1827.28 1987.28 1825.31 1991.4 1826.87Z" fill="#D7DEED" fill-rule="evenodd"/><path d="M1114.72 1392.5C1310.96 1478.04 1457.67 1575.74 1442.42 1610.73 1427.17 1645.71 1255.73 1604.73 1059.5 1519.19 863.261 1433.65 716.545 1335.95 731.795 1300.96 747.045 1265.98 918.487 1306.96 1114.72 1392.5Z" fill="#C7CFE2" fill-rule="evenodd"/><path d="M510.466 1129.1C706.701 1214.64 853.417 1312.35 838.167 1347.33 822.917 1382.32 651.475 1341.33 455.241 1255.8 259.007 1170.26 112.29 1072.55 127.54 1037.57 142.791 1002.58 314.232 1043.57 510.466 1129.1Z" fill="#C7CFE2" fill-rule="evenodd"/><path d="M58.1218 0 303.153 0C335.253-1.95438e-14 361.275 25.9762 361.275 58.0194 361.275 90.0626 335.253 116.039 303.153 116.039L58.1218 116.039C26.022 116.039 0 90.0626 0 58.0194 0 25.9762 26.022 9.77192e-15 58.1218 0Z" fill="#384980" fill-rule="evenodd" transform="matrix(-0.399588 0.916695 0.916695 0.399588 786.134 1176.3)"/><path d="M681.41 1375.76 817.669 1435.15C865.272 1455.9 888.593 1507.75 869.759 1550.96L808.935 1690.49 808.934 1690.49 797.271 1717.25C766.252 1788.41 672.015 1815.98 586.786 1778.83 501.556 1741.68 457.61 1653.87 488.629 1582.71L544.793 1453.87 544.794 1453.87 561.117 1416.42C579.951 1373.21 633.808 1355.01 681.41 1375.76Z" fill="#5B5D6E" fill-rule="evenodd"/><path d="M681.009 1376.68 817.268 1436.07C864.87 1456.82 888.191 1508.67 869.357 1551.88L850.608 1594.89 541.966 1460.35 544.392 1454.79 544.392 1454.79 560.715 1417.34C579.549 1374.13 633.406 1355.93 681.009 1376.68Z" fill="#82889D" fill-rule="evenodd"/><path d="M3515.51 2439C3711.75 2524.54 3858.46 2622.25 3843.21 2657.23 3827.96 2692.22 3656.52 2651.23 3460.29 2565.7 3264.05 2480.16 3117.34 2382.45 3132.59 2347.47 3147.84 2312.48 3319.28 2353.46 3515.51 2439Z" fill="#C7CFE2" fill-rule="evenodd"/><path d="M2911.26 2175.61C3107.49 2261.15 3254.21 2358.85 3238.96 2393.84 3223.71 2428.82 3052.27 2387.84 2856.03 2302.3 2659.8 2216.76 2513.08 2119.06 2528.33 2084.07 2543.58 2049.09 2715.02 2090.07 2911.26 2175.61Z" fill="#C7CFE2" fill-rule="evenodd"/><path d="M58.1218 0 303.153 0C335.253-1.95438e-14 361.275 25.9762 361.275 58.0194 361.275 90.0626 335.253 116.039 303.153 116.039L58.1218 116.039C26.022 116.039 0 90.0626 0 58.0194 0 25.9762 26.022 9.77192e-15 58.1218 0Z" fill="#384980" fill-rule="evenodd" transform="matrix(-0.399588 0.916695 0.916695 0.399588 3186.93 2222.81)"/><path d="M3082.2 2422.26 3218.46 2481.66C3266.06 2502.41 3289.38 2554.25 3270.55 2597.46L3209.73 2737 3209.73 2737 3198.06 2763.76C3167.04 2834.92 3072.81 2862.49 2987.58 2825.33 2902.35 2788.18 2858.4 2700.38 2889.42 2629.22L2945.59 2500.37 2945.59 2500.37 2961.91 2462.92C2980.74 2419.72 3034.6 2401.51 3082.2 2422.26Z" fill="#5B5D6E" fill-rule="evenodd"/><path d="M3082.79 2420.92 3219.04 2480.32C3266.65 2501.07 3289.97 2552.92 3271.13 2596.12L3252.39 2639.13 2943.74 2504.6 2946.17 2499.03 2946.17 2499.03 2962.49 2461.59C2981.33 2418.38 3035.18 2400.17 3082.79 2420.92Z" fill="#82889D" fill-rule="evenodd"/><path d="M1967.64 1877.05C2228.42 1990.73 2428.66 2159.04 2519.28 2321.78L2534.15 2352.08 1234.03 1785.36 1266.35 1775.63C1447.26 1731.25 1706.86 1763.38 1967.64 1877.05Z" fill="#D7DEED" fill-rule="evenodd"/><path d="M1961.33 1874.55 1901.68 1852.03C1752.33 1804.12 1600.87 1813.61 1484.33 1870.64L1460.3 1883.99 1234.03 1785.36 1266.35 1775.63C1424.65 1736.8 1643.19 1756.54 1870.05 1838.24L1961.33 1874.55Z" fill="#C7CFE2" fill-rule="evenodd"/><path d="M786.289 1740.95 961.705 1817.41 1049.61 1855.73 1225.03 1932.2 1254.65 1953.27C1443.48 2085.92 1553.38 2156.53 1629.11 2322.15 1701.04 2513.14 1609.09 2613.79 1650.77 2689.82L1662.74 2706.4 1545.62 2653.64C1518.59 2642.57 1497.91 2631.53 1482.24 2620.21L1477.11 2615.79 1487.33 2629.94 1370.2 2577.18C1153.96 2488.59 1344.55 2402.25 1246.04 2158.11 1157.81 1976.4 1027.74 1912.14 786.289 1740.95Z" fill="#C7CFE2" fill-rule="evenodd"/><path d="M0 0 1140.84 0 1140.84 536.544 869.415 533.24C635.793 538.443 776.005 383.139 588.143 198.7 434.653 67.383 289.744 60.4513 0 0Z" fill="#D7DEED" fill-rule="evenodd" transform="matrix(-0.916695 -0.399588 -0.399588 0.916695 2878.98 2653.16)"/><path d="M1666.87 2577.33 2065.84 2751.24 2051.45 2769.24C2010.82 2818.32 1974.42 2843.39 1868.38 2794.33L1618.24 2688.9 1618.24 2688.9 1370.75 2577.42C1262.63 2533.13 1256.22 2489.39 1264.52 2426.22L1267.91 2403.43 1666.87 2577.34Z" fill="#FF6464" fill-rule="evenodd"/><path d="M2798.51 1299.6 3294.41 980.894C3304.91 974.146 3316.58 973.607 3324.57 979.503L3566.23 1157.91C3583.29 1170.5 3574.66 1203.11 3551.32 1214.25L3310.02 1329.42C3286.68 1340.56 3278.06 1373.17 3295.12 1385.76L3356.37 1430.98C3374.39 1444.28 3363.61 1479.22 3338.62 1488.53L2500.23 1801.04C2467.15 1813.37 2455.22 1769 2485.55 1746.45L2861.63 1466.84C2880.61 1452.74 2885.02 1425.41 2870.1 1414.4L2787.77 1353.61C2772.1 1342.04 2777.9 1312.84 2798.51 1299.6Z" fill="#EAE509" fill-rule="evenodd"/><path d="M2072.76 1008.58 2257.89 448.922C2261.81 437.072 2270.55 429.31 2280.47 428.871L2580.56 415.607C2601.74 414.671 2615.54 445.449 2604.4 468.786L2489.22 710.083C2478.08 733.419 2491.88 764.198 2513.06 763.261L2589.12 759.899C2611.5 758.91 2625.08 792.85 2611.51 815.808L2156.2 1586.03C2138.24 1616.42 2101.06 1589.43 2110.45 1552.82L2227.02 1098.91C2232.9 1076.01 2219.15 1051.99 2200.62 1052.81L2098.38 1057.33C2078.92 1058.19 2065.07 1031.83 2072.76 1008.58Z" fill="#EAE509" fill-rule="evenodd"/></g></svg>